<svg xmlns="http://www.w3.org/2000/svg" width="38.571" height="22.5" viewBox="0 0 38.571 22.5"><defs><style>.a{fill:#00c8aa;}</style></defs><g transform="translate(0 -106.666)"><g transform="translate(0 106.666)"><path class="a" d="M9.321,108.434c-1.286-1.286-6.75-1.607-8.518-1.768a.59.59,0,0,0-.482.161A1.219,1.219,0,0,0,0,107.47v14.464a.759.759,0,0,0,.8.8H5.625a.884.884,0,0,0,.8-.482c0-.482,2.893-9,3.214-13.178A.642.642,0,0,0,9.321,108.434Z" transform="translate(0 -106.666)"/></g><g transform="translate(13.64 110.041)"><g transform="translate(0 0)"><path class="a" d="M193.939,153.717c-1.607-.482-3.054-1.125-4.339-1.607-2.893-1.286-4.179-.643-6.75,1.929-1.125,1.125-1.929,2.732-1.768,3.375,0,.161,0,.161.321.321.8.321,1.929.482,3.054-1.286a.835.835,0,0,1,.643-.321,2.979,2.979,0,0,0,1.125-.321,7.829,7.829,0,0,1,1.125-.482h.321c.161,0,.482.161.643.161.8.8,2.25,1.929,3.7,3.214a36.81,36.81,0,0,1,5.625,5.143h.161C196.671,160.627,194.742,155.163,193.939,153.717Z" transform="translate(-181.061 -151.467)"/></g></g><g transform="translate(27.321 108.273)"><g transform="translate(0 0)"><path class="a" d="M373.112,128a28.184,28.184,0,0,0-9.964,1.607l-.482.482a.966.966,0,0,0,.161.643,90.523,90.523,0,0,1,4.661,12.7,1.068,1.068,0,0,0,.8.643h4.821a.759.759,0,0,0,.8-.8V128.8A.759.759,0,0,0,373.112,128Z" transform="translate(-362.666 -128)"/></g></g><g transform="translate(8.357 111.487)"><g transform="translate(0 0)"><path class="a" d="M131.666,183.2c-.643-1.446-3.375-3.536-5.786-5.464-1.286-1.125-2.571-2.089-3.536-2.893-.161.161-.482.161-.482.321a3.028,3.028,0,0,1-1.286.321c-1.286,1.607-2.893,2.25-4.661,1.607a1.9,1.9,0,0,1-1.446-1.446c-.321-1.607,1.125-3.857,2.25-4.982h-3.214a81.939,81.939,0,0,1-2.571,9.643,18.168,18.168,0,0,0,1.768,1.768c3.054,2.571,6.589,5.143,7.232,5.625a4.568,4.568,0,0,0,1.929.643h.482l-2.571-2.571a.8.8,0,0,1,1.125-1.125l3.214,3.214c.321.321.643.161.964.161.482-.161.643-.482.8-.964l-3.7-3.7a.8.8,0,0,1,1.125-1.125l4.018,4.018a1.719,1.719,0,0,0,1.286,0c.161-.161.482-.321.643-.643l-4.5-4.5a.8.8,0,0,1,1.125-1.125l4.661,4.661a1.063,1.063,0,0,0,.964-.161A1.091,1.091,0,0,0,131.666,183.2Z" transform="translate(-110.934 -170.667)"/></g></g></g></svg>