<svg xmlns="http://www.w3.org/2000/svg" width="36.743" height="39.473" viewBox="0 0 36.743 39.473"><defs><style>.a{fill:#00c8aa;}</style></defs><g transform="translate(-50.452 -43.838)"><path class="a" d="M137.412,192a2.9,2.9,0,0,0-2.9,2.9,2.856,2.856,0,0,0,.107.778v.006a2.905,2.905,0,0,0,2.788,2.112.724.724,0,1,1,0,1.448,4.361,4.361,0,0,1-4.052-2.776,4.345,4.345,0,0,0-2.915,8.133l.016.009.021.009a4.348,4.348,0,0,0,4.9-.824.724.724,0,1,1,1.014,1.034,5.8,5.8,0,0,1-1.481,1.053,4.34,4.34,0,0,1,1.772,3.5.724.724,0,1,1-1.448,0,2.9,2.9,0,0,0-2.9-2.9,5.744,5.744,0,0,1-2.106-.4,4.342,4.342,0,0,0,2.83,7.637,4.287,4.287,0,0,0,.686-.054,4.361,4.361,0,0,0,2.417-1.249.724.724,0,1,1,1.034,1.014,5.824,5.824,0,0,1-2.683,1.552c0,.062-.007.124-.007.186a2.9,2.9,0,0,0,5.792,0V194.9A2.9,2.9,0,0,0,137.412,192Z" transform="translate(-70.53 -134.753)"/><path class="a" d="M61.814,60.143a5.829,5.829,0,0,1,.723.045c0-.015,0-.03,0-.045s0-.028,0-.042L55.8,43.838l-5.351,2.217.554,1.338.669-.277a.724.724,0,1,1,.554,1.338l-.669.277.554,1.338,2.007-.831a.724.724,0,0,1,.554,1.338l-2.007.831.554,1.338.669-.277a.724.724,0,1,1,.554,1.338l-.669.277.554,1.338,2.007-.831a.724.724,0,1,1,.554,1.338l-2.007.831.554,1.338.669-.277a.724.724,0,1,1,.554,1.338l-.669.277,1.232,2.974A5.784,5.784,0,0,1,61.814,60.143Z" transform="translate(0 0)"/><path class="a" d="M232.724,139.738a.723.723,0,0,1-.324-.077l-.4-.2v3.173a4.323,4.323,0,0,1,1.448.249v-3.569l-.212.212A.724.724,0,0,1,232.724,139.738Z" transform="translate(-165.118 -86.835)"/><path class="a" d="M201.448,139.462l-.4.2a.724.724,0,0,1-.836-.136l-.212-.212v4.43a4.348,4.348,0,0,1,1.448-.861Z" transform="translate(-136.014 -86.835)"/><path class="a" d="M292.036,56.719l.6-4.172-1.416-2.125V53.1a.724.724,0,0,1-1.448,0V50.422l-1.416,2.125.6,4.172Z" transform="translate(-216.37 -5.988)"/><path class="a" d="M297.448,139.62a4.323,4.323,0,0,1,1.448.249V136H296v3.869a4.323,4.323,0,0,1,1.448-.249Z" transform="translate(-223.326 -83.821)"/><path class="a" d="M381.792,109.48a.724.724,0,0,1-.083-.667L383.514,104h-3.458l-1.81,7.24h2.693a.724.724,0,0,1,.71.866l-.787,3.932,4.462-6.246h-2.937a.724.724,0,0,1-.6-.312Z" transform="translate(-298.129 -54.717)"/><path class="a" d="M290.725,199.608a.724.724,0,0,1-1.3-.563l.461-2.305a4.343,4.343,0,0,0-6.267,3.9.724.724,0,1,1-1.448,0,5.832,5.832,0,0,1,3.586-5.355,2.9,2.9,0,1,0-5.758-.437v7.306a5.052,5.052,0,0,1,.978.251,2.671,2.671,0,0,1,1.918,2.578.724.724,0,1,1-1.448,0c0-.362-.1-.882-.95-1.212a3.321,3.321,0,0,0-.5-.146v11.494a2.9,2.9,0,1,0,5.792,0c0-.062,0-.124-.007-.186a5.824,5.824,0,0,1-2.683-1.552.724.724,0,1,1,1.034-1.014,4.361,4.361,0,0,0,2.416,1.249,4.285,4.285,0,0,0,.686.055,4.344,4.344,0,0,0,2.519-7.883l-.021-.017-.016-.01-.015-.01a2.188,2.188,0,0,0-1.743,2.127.724.724,0,1,1-1.448,0,3.6,3.6,0,0,1,1.376-2.847,4.39,4.39,0,0,0-.652-.049.724.724,0,0,1,0-1.448,5.756,5.756,0,0,1,2.973.821,4.346,4.346,0,0,0,1.429-6.029Z" transform="translate(-208.774 -134.7)"/><path class="a" d="M215.794,67.7l-.817,1.837h1.633Z" transform="translate(-149.635 -21.7)"/><path class="a" d="M203.251,105.524a.724.724,0,0,1,.648,0l.981.491.727-.727L205.035,104h-2.92l-.572,1.288.727.727Z" transform="translate(-137.416 -54.717)"/></g></svg>