<svg xmlns="http://www.w3.org/2000/svg" width="21.36" height="23.695" viewBox="0 0 21.36 23.695"><defs><style>.a{fill:#acacac;}</style></defs><path class="a" d="M19.99,14.6l-1.753-1.752L10.351,4.965a3.717,3.717,0,0,0-5.257,5.257l7.886,7.888a.826.826,0,0,0,1.168-1.168L6.263,9.054a2.065,2.065,0,0,1,2.92-2.92l7.888,7.886,1.752,1.752a3.718,3.718,0,1,1-5.259,5.257L12.1,19.569,3.926,11.391l-.584-.584a5.37,5.37,0,0,1,7.594-7.594L19.7,11.975a.826.826,0,1,0,1.168-1.168L12.1,2.045a7.022,7.022,0,0,0-9.93,9.93l8.762,8.762L12.4,22.2A5.37,5.37,0,0,0,19.99,14.6Zm0,0" transform="translate(-0.128 0)"/></svg>