<svg xmlns="http://www.w3.org/2000/svg" width="190.867" height="66.73" viewBox="0 0 190.867 66.73">
  <path id="Caminho_4" data-name="Caminho 4" d="M232.985,57.677A9.017,9.017,0,0,0,227.294,56a9.8,9.8,0,0,0-6.5,2.193,6.826,6.826,0,0,0-2.6,5.455,6.542,6.542,0,0,0,1.985,5.086c1.328,1.216,3.312,1.824,5.971,1.824a9.374,9.374,0,0,0,6.532-2.193,7.492,7.492,0,0,0,2.472-5.916A5.6,5.6,0,0,0,232.985,57.677Zm-167.9,57.774a6.534,6.534,0,0,0,2.6,5.031c1.741,1.493,4.249,2.248,7.543,2.248a13.542,13.542,0,0,0,9-3.17A26.163,26.163,0,0,0,94.9,117.275a19.569,19.569,0,0,0,4.08-2.746,12.592,12.592,0,0,0,1.367,1.953,11.6,11.6,0,0,0,9.378,4.2q7.5,0,12.41-7.833a12.724,12.724,0,0,0,3.93,5.75,8.941,8.941,0,0,0,5.728,2.1c2.715,0,5.521-1.087,8.441-3.262,1.142-.848,2.246-1.787,3.351-2.783a14.449,14.449,0,0,0,.674,2.322c.973,2.487,2.657,3.741,5.054,3.723a5.487,5.487,0,0,0,4.3-1.548c.918-1.014,1.723-3,2.416-5.916a80.97,80.97,0,0,1,3.275-10.265,41.124,41.124,0,0,1,4.212-8.588c1.951-2.985,2.657-3.354,3.593-3.354.693,0,1.049.5,1.049,1.493,0,1.253-.243,3.852-.749,7.832a79,79,0,0,0-.954,10.265,15.028,15.028,0,0,0,1.572,7.15,5.042,5.042,0,0,0,4.679,2.949,5.761,5.761,0,0,0,4.418-1.493q1.375-1.494,2.414-5.971a66.415,66.415,0,0,1,3.688-10.818,45.979,45.979,0,0,1,4.548-8.256c1.516-2.082,2.677-3.133,3.5-3.133.693,0,1.048.5,1.048,1.493a47.611,47.611,0,0,1-1.235,8.127A58.015,58.015,0,0,0,189.765,110c0,3.483.823,6.155,2.47,7.979,1.647,1.844,4.081,2.746,7.3,2.746a18.557,18.557,0,0,0,10.669-3.17c.9-.608,1.76-1.252,2.621-1.953a8.774,8.774,0,0,0,1.516,2.452c1.647,1.842,4.08,2.745,7.3,2.745a18.608,18.608,0,0,0,10.669-3.169,41.783,41.783,0,0,0,8.76-8.128,8.5,8.5,0,0,0,1.8-5.787,5.732,5.732,0,0,0-.711-3.078,2.179,2.179,0,0,0-1.947-1.124,3.375,3.375,0,0,0-2.564,1.308,74.687,74.687,0,0,1-6.963,7.427c-1.742,1.53-3.239,2.285-4.492,2.285a2.574,2.574,0,0,1-1.591-.461,1.983,1.983,0,0,0-.394-.387c-.019-.018-.037-.018-.037-.037a2.527,2.527,0,0,1-.243-.369c-.937-2.377,1.553-12.7,4.024-22.944.356-1.511.73-3.022,1.085-4.515a13.671,13.671,0,0,0,.188-1.769c0-2.175-1.367-3.262-4.081-3.262-2.582,0-4.474.387-5.633,1.161A6.7,6.7,0,0,0,217,82c-1.291,5.2-2.4,10.707-3.275,16.531-.075-.018-.168-.018-.243-.037a6.759,6.759,0,0,0-.113,1,6.821,6.821,0,0,1-.149,1.253c-.243,1.253-.467,2.4-.637,3.446a52.092,52.092,0,0,1-3.968,4c-1.74,1.53-3.238,2.285-4.492,2.285-1.834,0-2.752-1.253-2.752-3.741q0-2.626,1.8-10.726,2.078-9.509,2.078-13.158,0-6.054-6.159-6.063-5.025,0-10.8,5.234t-10.519,16.7c.187-1.124.542-2.8,1.048-5.031a58.429,58.429,0,0,0,1.8-10.818,6.571,6.571,0,0,0-1.385-4.57c-.918-1-2.472-1.493-4.68-1.493a12.992,12.992,0,0,0-7.056,2.469,28.674,28.674,0,0,0-7.3,7.5,49.754,49.754,0,0,0-6.1,12.31,57.57,57.57,0,0,1,.954-6.856c.375-1.824.88-4,1.516-6.487a34.51,34.51,0,0,0,1.423-6.727,1.918,1.918,0,0,0-.767-1.769,5.4,5.4,0,0,0-2.657-.461,10.059,10.059,0,0,0-5.448,1.253A6.922,6.922,0,0,0,146.321,82a74.557,74.557,0,0,0-3.482,21.377,62.764,62.764,0,0,1-4.66,4.81c-1.7,1.53-3.164,2.285-4.361,2.285a2.3,2.3,0,0,1-1.854-.848,3.387,3.387,0,0,1-.711-2.248q0-4.2,2.171-14.927a67.794,67.794,0,0,0,1.423-9.325c0-2.175-1.553-3.262-4.642-3.262a23.442,23.442,0,0,0-4.175.369,6.676,6.676,0,0,0-1.178-2.838,3.709,3.709,0,0,0-2.808-.792,21.305,21.305,0,0,0-12.354,4.054,29.624,29.624,0,0,0-9.34,10.726,29.937,29.937,0,0,0-3.5,13.527,21.684,21.684,0,0,1-7.206,5.271,23.61,23.61,0,0,0,.187-2.617,11.981,11.981,0,0,0-1.572-6.026,61.154,61.154,0,0,0-4.586-6.671,34.263,34.263,0,0,1-3.089-4.2,6.024,6.024,0,0,1-.992-3.078,13.148,13.148,0,0,1,1.7-5.694,13.628,13.628,0,0,0,1.048-2.433,6.375,6.375,0,0,0,.374-1.769A1.569,1.569,0,0,0,81.668,76.2a10.039,10.039,0,0,0-3.687-.461q-5.7,0-7.487,4.11c-1.385,3.243-2.808,6.358-4.268,9.38s-2.714,5.418-3.8,7.224A122.067,122.067,0,0,1,54.564,106.9l-1.235,1.493A5.125,5.125,0,0,0,52,111.8a3.826,3.826,0,0,0,.955,2.654,3.141,3.141,0,0,0,2.471,1.069,5.031,5.031,0,0,0,3.594-1.677,66.7,66.7,0,0,0,6.289-6.91,61.732,61.732,0,0,0,5.84-9.141c.88,1,1.834,2.156,2.845,3.5a22.916,22.916,0,0,1,2.508,4.146,11.88,11.88,0,0,1,1.086,4.57c-.561-.055-1.4-.166-2.508-.332a22.7,22.7,0,0,0-2.9-.24,7.32,7.32,0,0,0-5.316,1.769A5.893,5.893,0,0,0,65.084,115.451Zm54.769-13.066a15.3,15.3,0,0,1-2.752,6.432q-1.881,2.433-3.986,2.433a4.074,4.074,0,0,1-3.276-1.4,6.457,6.457,0,0,1-1.179-4.294,24.943,24.943,0,0,1,1.984-9.9,19.868,19.868,0,0,1,5.353-7.5,11.587,11.587,0,0,1,7.338-2.949Z" transform="translate(-52 -56)" fill="#00C8AA" fill-rule="evenodd"/>
</svg>
