<svg id="Grupo_44" data-name="Grupo 44" xmlns="http://www.w3.org/2000/svg" xmlns:xlink="http://www.w3.org/1999/xlink" width="426.475" height="380.029" viewBox="0 0 426.475 380.029">
  <defs>
    <linearGradient id="linear-gradient" x1="-126.908" y1="-17.19" x2="-126.245" y2="-17.19" gradientUnits="objectBoundingBox">
      <stop offset="0" stop-color="#aa80f9"/>
      <stop offset="0.996" stop-color="#6165d7"/>
    </linearGradient>
    <linearGradient id="linear-gradient-2" x1="-519.332" y1="0.5" x2="-518.332" y2="0.5" gradientUnits="objectBoundingBox">
      <stop offset="0" stop-color="#444b8c"/>
      <stop offset="0.996" stop-color="#26264f"/>
    </linearGradient>
    <linearGradient id="linear-gradient-3" x1="-918.483" y1="2.453" x2="-919.197" y2="-0.701" gradientUnits="objectBoundingBox">
      <stop offset="0" stop-color="#ab316d"/>
      <stop offset="1" stop-color="#792d3d"/>
    </linearGradient>
    <linearGradient id="linear-gradient-4" x1="-407.48" y1="0.5" x2="-406.48" y2="0.5" xlink:href="#linear-gradient-2"/>
    <linearGradient id="linear-gradient-5" x1="-709.47" y1="1.166" x2="-711.016" y2="-2.224" xlink:href="#linear-gradient-3"/>
    <linearGradient id="linear-gradient-6" y1="0.5" x2="1" y2="0.5" gradientUnits="objectBoundingBox">
      <stop offset="0" stop-color="#02c4ad"/>
      <stop offset="0.996" stop-color="#6cdcff"/>
      <stop offset="1" stop-color="#009ccd"/>
    </linearGradient>
    <linearGradient id="linear-gradient-7" x1="1.663" y1="0.453" x2="2.922" y2="1.269" xlink:href="#linear-gradient-2"/>
    <linearGradient id="linear-gradient-8" y1="0.5" x2="1" y2="0.5" gradientUnits="objectBoundingBox">
      <stop offset="0" stop-color="#02c4ad"/>
      <stop offset="0.996" stop-color="#3effe8"/>
      <stop offset="1" stop-color="#02c4ad"/>
    </linearGradient>
    <linearGradient id="linear-gradient-9" x1="-210.434" y1="2.42" x2="-209.964" y2="-1.414" gradientUnits="objectBoundingBox">
      <stop offset="0" stop-color="#ab316d"/>
      <stop offset="1" stop-color="#c67586"/>
    </linearGradient>
    <linearGradient id="linear-gradient-10" x1="-37.547" y1="0.5" x2="-35.869" y2="0.5" xlink:href="#linear-gradient"/>
    <linearGradient id="linear-gradient-11" x1="-398.204" y1="-72.216" x2="-398.249" y2="-69.03" gradientUnits="objectBoundingBox">
      <stop offset="0" stop-color="#ab316d"/>
      <stop offset="1" stop-color="#db7a8f"/>
    </linearGradient>
    <linearGradient id="linear-gradient-12" x1="-181.083" y1="0.5" x2="-180.083" y2="0.5" xlink:href="#linear-gradient"/>
    <linearGradient id="linear-gradient-13" x1="77.776" y1="0.5" x2="78.776" y2="0.5" xlink:href="#linear-gradient-3"/>
    <linearGradient id="linear-gradient-14" x1="0.517" y1="1.431" x2="0.583" y2="-0.204" gradientUnits="objectBoundingBox">
      <stop offset="0" stop-color="#311944"/>
      <stop offset="1" stop-color="#6b3976"/>
    </linearGradient>
    <linearGradient id="linear-gradient-15" y1="0.5" x2="1" y2="0.5" gradientUnits="objectBoundingBox">
      <stop offset="0" stop-color="#02c4ad"/>
      <stop offset="0.004" stop-color="#02c4ad"/>
      <stop offset="1" stop-color="#7998ff"/>
    </linearGradient>
    <linearGradient id="linear-gradient-16" x1="78.059" y1="-8.081" x2="79.056" y2="-8.081" xlink:href="#linear-gradient-2"/>
    <linearGradient id="linear-gradient-17" x1="238.16" y1="-31.61" x2="239.384" y2="-33.386" gradientUnits="objectBoundingBox">
      <stop offset="0" stop-color="#ffc444"/>
      <stop offset="0.996" stop-color="#f36f56"/>
    </linearGradient>
    <linearGradient id="linear-gradient-18" x1="64.024" y1="-42.637" x2="65.001" y2="-42.637" xlink:href="#linear-gradient-2"/>
    <linearGradient id="linear-gradient-19" x1="172.79" y1="-24.438" x2="173.959" y2="-26.354" xlink:href="#linear-gradient-17"/>
    <linearGradient id="linear-gradient-20" x1="-73.05" y1="1.991" x2="-74.268" y2="1.327" xlink:href="#linear-gradient-2"/>
    <linearGradient id="linear-gradient-22" x1="-81.675" y1="-0.815" x2="-82.809" y2="-1.463" xlink:href="#linear-gradient-2"/>
    <linearGradient id="linear-gradient-23" y1="0.5" x2="1" y2="0.5" gradientUnits="objectBoundingBox">
      <stop offset="0" stop-color="#02c4ad"/>
      <stop offset="0.004" stop-color="#02c4ad"/>
      <stop offset="1" stop-color="#3c72d6"/>
    </linearGradient>
    <linearGradient id="linear-gradient-24" x1="-36.241" y1="0.766" x2="-35.635" y2="0.258" gradientUnits="objectBoundingBox">
      <stop offset="0" stop-color="#e38ddd"/>
      <stop offset="0.004" stop-color="#6c7ede"/>
      <stop offset="1" stop-color="#1ca595"/>
    </linearGradient>
    <linearGradient id="linear-gradient-25" x1="-80.37" y1="32.962" x2="-80.317" y2="30.896" xlink:href="#linear-gradient-17"/>
    <linearGradient id="linear-gradient-26" x1="109.729" y1="21.594" x2="109.052" y2="20.037" xlink:href="#linear-gradient-14"/>
    <linearGradient id="linear-gradient-27" x1="-272.796" y1="14.348" x2="-272.832" y2="17.508" xlink:href="#linear-gradient-17"/>
    <linearGradient id="linear-gradient-28" x1="132.834" y1="28.235" x2="132.011" y2="26.163" xlink:href="#linear-gradient-14"/>
    <linearGradient id="linear-gradient-29" y1="0.5" x2="1" y2="0.5" gradientUnits="objectBoundingBox">
      <stop offset="0" stop-color="#02c4ad"/>
      <stop offset="0.004" stop-color="#02c4ad"/>
      <stop offset="1" stop-color="#1f97d6"/>
    </linearGradient>
    <linearGradient id="linear-gradient-30" x1="0.397" y1="-0.068" x2="1.135" y2="3.147" xlink:href="#linear-gradient-17"/>
    <linearGradient id="linear-gradient-31" x1="-36.775" y1="0.187" x2="-36.701" y2="1.042" gradientUnits="objectBoundingBox">
      <stop offset="0" stop-color="#ff9085"/>
      <stop offset="1" stop-color="#fb6fbb"/>
    </linearGradient>
    <linearGradient id="linear-gradient-32" x1="-94.066" y1="1.578" x2="-91.691" y2="-5.324" xlink:href="#linear-gradient-17"/>
    <linearGradient id="linear-gradient-33" x1="-149.465" y1="3.065" x2="-146.966" y2="-0.811" xlink:href="#linear-gradient-17"/>
    <linearGradient id="linear-gradient-34" x1="-10.504" y1="1.066" x2="-10.311" y2="0.491" gradientUnits="objectBoundingBox">
      <stop offset="0" stop-color="#e6e6e6"/>
      <stop offset="1" stop-color="#e6e6e6"/>
    </linearGradient>
    <linearGradient id="linear-gradient-35" x1="-11.068" y1="2.203" x2="-10.866" y2="1.014" gradientUnits="objectBoundingBox">
      <stop offset="0" stop-color="#efefef"/>
      <stop offset="1" stop-color="#6e6e6e"/>
    </linearGradient>
    <linearGradient id="linear-gradient-36" x1="-11.669" y1="0.004" x2="-11.517" y2="2.181" gradientUnits="objectBoundingBox">
      <stop offset="0" stop-color="#959595"/>
      <stop offset="1" stop-color="#e6e6e6"/>
    </linearGradient>
    <linearGradient id="linear-gradient-37" x1="1.582" y1="0.503" x2="2.088" y2="0.548" xlink:href="#linear-gradient-31"/>
    <linearGradient id="linear-gradient-38" x1="-27.679" y1="1.971" x2="-27.627" y2="0.209" xlink:href="#linear-gradient-17"/>
    <linearGradient id="linear-gradient-39" x1="-60.534" y1="0.991" x2="-60.578" y2="4.162" xlink:href="#linear-gradient-17"/>
    <linearGradient id="linear-gradient-40" x1="-18.93" y1="0.253" x2="-16.847" y2="0.953" xlink:href="#linear-gradient-31"/>
    <linearGradient id="linear-gradient-41" y1="0.5" x2="1" y2="0.5" gradientUnits="objectBoundingBox">
      <stop offset="0" stop-color="#02c4ad"/>
      <stop offset="0.996" stop-color="#6165d7"/>
    </linearGradient>
    <linearGradient id="linear-gradient-42" x1="9.849" y1="-0.003" x2="10.837" y2="2.111" xlink:href="#linear-gradient-17"/>
    <linearGradient id="linear-gradient-43" x1="-303.752" y1="-211.689" x2="-305.334" y2="-210.696" xlink:href="#linear-gradient-17"/>
    <linearGradient id="linear-gradient-44" x1="1.568" y1="0.524" x2="2.3" y2="0.575" xlink:href="#linear-gradient-31"/>
    <linearGradient id="linear-gradient-45" x1="-91.548" y1="0.142" x2="-92.551" y2="2.239" xlink:href="#linear-gradient-17"/>
  </defs>
  <g id="Grupo_31" data-name="Grupo 31" transform="translate(0 22.744)">
    <path id="Caminho_25" data-name="Caminho 25" d="M2741.422,501.206c-3.394,2.965-31.411,28.254-27.333,64.373.563,4.988,2.633,23.31,16.565,35.87,19.1,17.219,53.371,17.179,83.693-1.746q.116-2.58.233-5.16c-7.457-1.235-29.859-5.96-44.324-25.179-3.762-5-14.192-18.857-13.848-36.817.187-9.69,3.448-17.313-1.236-23.946C2751.7,503.679,2745.7,501.93,2741.422,501.206Z" transform="translate(-2574.992 -466.661)" fill="#fff"/>
    <path id="Caminho_26" data-name="Caminho 26" d="M2740.534,604.412c-2.8-9.248,1.6-15.5-2.815-28.474-3.968-11.661-10.177-14.411-13.641-21.654-1.893-3.958-2.917-9.182-1.774-16.212-5.7,10.663-9.987,24.31-8.216,40.007.563,4.988,2.633,23.31,16.564,35.87,8.857,7.984,20.978,12.251,34.452,12.651C2748.45,619.451,2742.579,611.165,2740.534,604.412Z" transform="translate(-2574.992 -479.162)" opacity="0.3" fill="url(#linear-gradient)" style="mix-blend-mode: multiply;isolation: isolate"/>
    <path id="Caminho_27" data-name="Caminho 27" d="M2599.1,926.4s-3.836,1.919-3.836,3.837,4.8,6.714,6.713,8.632a3.165,3.165,0,0,0,4.8,0c.959-.959,0-.959-1.919-2.878S2599.1,926.4,2599.1,926.4Z" transform="translate(-2534.837 -610.837)" fill="url(#linear-gradient-2)"/>
    <path id="Caminho_28" data-name="Caminho 28" d="M2600.08,911.891s-.959,8.632-1.918,11.509a4.2,4.2,0,0,0,2.878.959s2.877-5.755,3.835-8.632Z" transform="translate(-2535.821 -605.917)" fill="url(#linear-gradient-3)"/>
    <path id="Caminho_29" data-name="Caminho 29" d="M2672.967,956.877s-2.878,1.918,0,4.8,6.713,4.8,9.591,4.8a9.328,9.328,0,0,0,3.192-.646,1.675,1.675,0,0,0,.336-2.965,50.84,50.84,0,0,0-5.446-3.1C2674.885,956.877,2672.967,956.877,2672.967,956.877Z" transform="translate(-2560.752 -621.171)" fill="url(#linear-gradient-4)"/>
    <path id="Caminho_30" data-name="Caminho 30" d="M2664.916,940.422s4.4,9.692,5.061,11.511c.694,1.916,2.729.962,3.63,0,0,0-1.977-9.593-2.936-12.47Z" transform="translate(-2558.456 -615.266)" fill="url(#linear-gradient-5)"/>
    <path id="Caminho_31" data-name="Caminho 31" d="M2648.671,711.514c16.352,10.774,5.509,50.231,1.918,63.3-4.59,16.705-15.706,45.971-46.037,75.768l-5.754-1.918a74.381,74.381,0,0,1-.959-24.937,81.754,81.754,0,0,1,4.8-18.223c5.782-15.223,11.087-17.83,14.387-25.9,9.116-22.283-16.033-39.861-7.673-56.587C2615.614,710.487,2637.759,704.324,2648.671,711.514Z" transform="translate(-2535.497 -536.936)" fill="#43c8e5"/>
    <path id="Caminho_32" data-name="Caminho 32" d="M2585.1,687.92a187.611,187.611,0,0,0,10.55,54.669c8.65,24.188,16.3,28.931,20.141,51.792,2.143,12.766,1.15,19.588,5.755,35.487,2.838,9.8,8.154,27.471,18.223,28.773a10.812,10.812,0,0,0,5.754-.959q-3.333-25.089-5.754-51.792c-3.762-42.054-5.112-81.825-4.8-118.929Z" transform="translate(-2531.392 -529.647)" fill="url(#linear-gradient-6)"/>
    <path id="Caminho_33" data-name="Caminho 33" d="M2544.584,501.959c-5.719,7.982-4.218,10.524-8.9,14.792-8.632,7.872-17.476,2.632-24.966,9.174-6.978,6.1-8.617,18.783-5.07,27.609,5.978,14.871,26.283,17.787,44.315,20.377,12.167,1.747,20.2,2.783,27.213-2.007,9.525-6.509,5.894-16.086,15.245-23.024,10.809-8.02,20.867.915,32.619-6.2,8.978-5.433,6.412-12.646,16.034-31.527,13.407-26.307,27.458-30.105,25.51-42.949-1.46-9.626-11-18.315-20.229-19.194-8.238-.784-14.685,4.795-22.87,11.877-16.155,13.978-13.37,21.372-23.172,25.605-13.927,6.015-22.838-7.491-38.239-.392C2552.919,490.324,2546.256,499.625,2544.584,501.959Z" transform="translate(-2503.837 -448.939)" fill="url(#linear-gradient-7)"/>
    <path id="Caminho_34" data-name="Caminho 34" d="M2603.584,519.027a74.882,74.882,0,0,1,22.059-12.467h0c5.622-1.753,33.346-10.133,47.954-4.8,3.979,1.453,5.408,3.348,5.755,3.836,3.618,5.077-.31,11.346-.959,23.019-.419,7.552,1.024,8.534.959,14.387-.133,12.007-6.333,19.272-12.469,29.732-7.254,12.368-21.87,38.047-20.14,65.22.548,8.613,2.379,13.261-.959,17.263-5.481,6.572-15.92.644-32.61,5.755-12.852,3.936-11,8.78-22.06,11.509-12.879,3.18-31.063.474-41.24-10.55-6.539-7.082-6.136-13.658-12.469-15.345-7.64-2.036-13.766,6.059-19.183,2.877-2.989-1.756-1.7-4.561-5.754-11.509-4.679-8.022-8.65-8.145-8.632-11.509.034-6.523,14.957-6.246,25.9-19.182,6.375-7.539,4.122-10.963,10.551-18.223,8.091-9.137,15.373-7.907,24.936-13.427C2586.953,563.069,2578.323,539.989,2603.584,519.027Z" transform="translate(-2503.837 -466.256)" fill="#fff"/>
    <path id="Caminho_35" data-name="Caminho 35" d="M2691.036,506.809s18.223-7.673,33.569-5.755c0,0,1.919,13.428-.959,21.1C2723.646,522.155,2704.464,508.727,2691.036,506.809Z" transform="translate(-2567.312 -466.506)" fill="url(#linear-gradient-8)"/>
    <path id="Caminho_36" data-name="Caminho 36" d="M2713.465,481.055s-1.2,7.187-4.792,10.781-8.386,5.989-10.781,7.187,3.594,3.593,9.583,3.593,19.167-3.593,19.167-7.188-4.792-1.2-7.187-2.4c-5.357-2.679,0-11.979,0-11.979Z" transform="translate(-2569.453 -459.829)" fill="url(#linear-gradient-9)"/>
    <g id="Grupo_30" data-name="Grupo 30" transform="translate(11.044 70.125)" opacity="0.15" style="mix-blend-mode: multiply;isolation: isolate">
      <path id="Caminho_37" data-name="Caminho 37" d="M2534.44,651.821c6.753-9.495,3.3-19.778,12.468-28.773,5.321-5.22,11.312-6.5,22.06-8.632,29.221-5.807,36.891,3.913,51.792-3.836,12.176-6.333,10.338-14.532,23.978-19.182,10.6-3.614,14.956.23,23.019-4.795,9.714-6.055,13.381-17.861,14.387-21.1a49.607,49.607,0,0,0,1.987-10.46c.212.4.43.79.638,1.19.7,2.742.534,8.621.035,8.763-1.124,10.094-6.706,16.95-12.251,26.4-7.255,12.368-21.87,38.047-20.141,65.219.548,8.613,2.379,13.261-.96,17.263-5.48,6.572-15.919.644-32.609,5.755-12.852,3.936-11,8.78-22.059,11.509-12.88,3.179-31.064.474-41.241-10.55-6.539-7.082-6.136-13.658-12.469-15.345-7.64-2.036-13.766,6.059-19.182,2.877-2.119-1.245-2.1-3.026-3.342-6.427C2527.652,659.122,2531.848,655.466,2534.44,651.821Z" transform="translate(-2520.547 -555.041)" fill="url(#linear-gradient-10)"/>
    </g>
    <path id="Caminho_38" data-name="Caminho 38" d="M2721.134,480.9s2.745,4.55,7.79,3.192c4.517-1.216,2.887-12.75-.473-14.341a6.165,6.165,0,0,0-4.764.238,6.835,6.835,0,0,0-2.8,7.472c-1.078-.417-2.077-.211-2.368.316-.37.668.485,1.7.677,1.928A3.727,3.727,0,0,0,2721.134,480.9Z" transform="translate(-2576.598 -455.87)" fill="url(#linear-gradient-11)"/>
    <path id="Caminho_39" data-name="Caminho 39" d="M2658.7,511.371c-4.181,1.683-38.96,16.342-47,51.791-1.11,4.9-5.187,22.878,3.836,39.323,12.37,22.547,44.744,33.788,79.605,25.9q.959-2.4,1.918-4.8c-6.635-3.62-26.234-15.454-33.569-38.364-1.907-5.959-7.195-22.478-.958-39.323,3.365-9.09,8.953-15.215,6.714-23.019C2667.593,517.087,2662.5,513.461,2658.7,511.371Z" transform="translate(-2539.776 -470.108)" fill="#fff"/>
    <path id="Caminho_40" data-name="Caminho 40" d="M2628.014,605.307c.4-9.655,6.612-14.11,6.713-27.814.09-12.316-4.868-16.957-5.755-24.937-.485-4.361.267-9.63,3.66-15.893-8.887,8.194-17.431,19.669-20.924,35.074-1.11,4.9-5.187,22.878,3.836,39.323,5.736,10.455,15.777,18.472,28.368,23.285C2630.539,622.114,2627.722,612.357,2628.014,605.307Z" transform="translate(-2539.776 -478.685)" opacity="0.3" fill="url(#linear-gradient-12)" style="mix-blend-mode: multiply;isolation: isolate"/>
    <path id="Caminho_41" data-name="Caminho 41" d="M2740.905,675.878s4.62-5.544,10.166-7.393,16.326-2.6,16.326-2.6a47.4,47.4,0,0,0-11.705,6.3c-6.469,4.621-7.393,8.318-12.014,8.318h-4.621Z" transform="translate(-2583.595 -522.499)" fill="url(#linear-gradient-13)"/>
  </g>
  <g id="Grupo_34" data-name="Grupo 34" transform="translate(130.323 169.653)">
    <path id="Caminho_42" data-name="Caminho 42" d="M2915.227,909.717c-2.952.065-5.386-2.918-5.439-6.663-.041-3.005-.6-73.809,35.27-91.96,8.685-4.395,16.522-4.259,23.292.4,13.944,9.6,17.982,35.245,19.309,43.672.074.475.164,1.041.219,1.361a7.825,7.825,0,0,1-2.119,7.914c-2.47,2.052-5.784,1.175-7.4-1.959a13.881,13.881,0,0,1-1.183-4.657c-2.908-18.471-7.593-30.047-13.924-34.406-3.9-2.687-8.558-2.6-14.234.276-29.012,14.68-28.548,78.482-28.54,79.119.049,3.518-2.022,6.457-4.719,6.857A4.342,4.342,0,0,1,2915.227,909.717Zm72.085-54.65,0-.006Zm0-.008,0-.008Z" transform="translate(-2771.808 -717.563)" fill="#97a6b7"/>
    <path id="Caminho_43" data-name="Caminho 43" d="M2711.364,855.016c-2.937-.369-5.084-3.69-4.794-7.418.233-2.991,6.138-73.4,43.427-86.156,9.027-3.089,16.8-1.8,23.1,3.823,12.975,11.586,14.646,37.651,15.194,46.217.031.483.068,1.058.093,1.385.526,2.971-.584,6.125-2.827,7.548-2.639,1.676-5.851.318-7.172-3.034a14.358,14.358,0,0,1-.75-4.8c-1.2-18.774-4.8-30.961-10.691-36.221-3.63-3.242-8.263-3.837-14.163-1.818-30.157,10.316-35.519,73.757-35.569,74.391-.273,3.5-2.6,6.117-5.313,6.117A4.285,4.285,0,0,1,2711.364,855.016Zm76.587-43.686,0-.006Zm0-.008,0-.009Z" transform="translate(-2702.894 -701.256)" fill="#97a6b7"/>
    <g id="Grupo_32" data-name="Grupo 32" transform="translate(5.345 0.594)">
      <path id="Caminho_44" data-name="Caminho 44" d="M2709.79,760.577c11.6-23.486,37.892-18.712,59.989-41.577,15.176-15.7,9.128-24.527,23.758-37.419a54.981,54.981,0,0,1,10.3-7.146,19.887,19.887,0,0,1,10.52-2.288l133.3,8.431c3.324.18,5.617,6.893,2.969,8.909-2.285,1.74-1.273,1.1-3.368,3.226-15.55,15.792-7.983,25.31-23.927,44.332-23.214,27.7-51.7,27.279-64.767,50.443l-1.485,1.485c-1.875,1.441-4.741.986-5.642.891l-136.656-20.2a6.3,6.3,0,0,1-5.034-9Z" transform="translate(-2709.108 -672.117)" fill="#a2a7ae"/>
    </g>
    <g id="Grupo_33" data-name="Grupo 33">
      <path id="Caminho_45" data-name="Caminho 45" d="M2701.7,759.679c11.6-23.486,37.891-18.713,59.988-41.576,15.176-15.7,9.129-24.527,23.758-37.419a54.991,54.991,0,0,1,10.3-7.146,19.9,19.9,0,0,1,10.521-2.288l137.543,8.369a3.563,3.563,0,0,1,1.942,6.407,61.51,61.51,0,0,0-6.582,5.791c-15.551,15.791-7.985,25.309-23.927,44.331-23.214,27.7-53.4,24.4-64.668,51.958l-.006.015a2.036,2.036,0,0,1-2.1,1.255l-141.775-20.611a6.3,6.3,0,0,1-5.034-9Z" transform="translate(-2701.021 -671.219)" fill="#fff"/>
    </g>
  </g>
  <g id="Grupo_43" data-name="Grupo 43" transform="translate(137.998)">
    <path id="Caminho_46" data-name="Caminho 46" d="M2854.93,570.377c-3.588-2.326-.319-9.094-.126-23.629.237-17.812-4.493-21.132-.694-28.119,4.646-8.546,16.342-12.082,24.091-12.248,1.709-.037,2.109-.97,16.426,2.738,25.8,6.681,32.254-.48,43.806,6.673,11.161,6.912,6.273,14.481,17.111,22.587,17.567,13.138,36.041-1.066,48.6,9.924,11.875,10.395,12.149,36.881-.343,51.334-14.16,16.386-39.695,11.463-56.809,8.214a104.6,104.6,0,0,1-40.725-18.48,108.459,108.459,0,0,1-22.246-22.074,8.03,8.03,0,0,0-4.962-2.909c-2.656-.284-4.789,1.341-5.817,2.053C2867.84,570.18,2858.455,572.662,2854.93,570.377Z" transform="translate(-2760.103 -445.628)" fill="url(#linear-gradient-14)"/>
    <g id="Grupo_37" data-name="Grupo 37" transform="translate(130.3)">
      <path id="Caminho_47" data-name="Caminho 47" d="M2909.783,555.378c1.184-1.014,39.229-71.978,43.779-73.072s6.339,62.829,6.339,62.829l-28.42,19.5Z" transform="translate(-2909.783 -437.505)" fill="url(#linear-gradient-15)"/>
      <path id="Caminho_48" data-name="Caminho 48" d="M3048.752,974.077c1.221.992,1.446,3.47,1.592,5.09a4.033,4.033,0,0,1,.017,1.341c-.59,1.864-4.2,2.06-9.875,2.64-8.959.915-11.625,1.62-12.325.287-.657-1.249.933-3.295,1.112-3.521.963-1.212,2.144-1.653,4.428-2.405,4.226-1.391,7.082-2.153,7.947-2.384C3047.049,973.683,3047.951,973.426,3048.752,974.077Z" transform="translate(-2949.869 -604.144)" fill="url(#linear-gradient-16)"/>
      <path id="Caminho_49" data-name="Caminho 49" d="M3050.876,961.868l-.9,10.209a5.543,5.543,0,0,0,5.7.7l2.3-10.035Z" transform="translate(-2957.321 -600.119)" fill="url(#linear-gradient-17)"/>
      <path id="Caminho_50" data-name="Caminho 50" d="M2969.471,961.152c1.688,1.379,2.462,4.27,1.424,5.91-1.021,1.611-3.042.824-8.292,1.779-5.622,1.022-6.9,2.579-10.894,2.1-1.615-.194-4.511-.82-4.627-1.935-.081-.785,1.252-1.4,5.674-3.662,6.276-3.213,6.228-3.33,7.6-3.774C2963.79,960.453,2967.242,959.331,2969.471,961.152Z" transform="translate(-2922.43 -599.55)" fill="url(#linear-gradient-18)"/>
      <path id="Caminho_51" data-name="Caminho 51" d="M2972.654,948.535l-1.409,9.852a5.544,5.544,0,0,0,5.735.282l2.826-9.782Z" transform="translate(-2930.624 -595.598)" fill="url(#linear-gradient-19)"/>
      <path id="Caminho_52" data-name="Caminho 52" d="M2964.263,630.5a892.874,892.874,0,0,1,3.715,213.348l11.285,1.279c7.877-9.937,17.41-25.145,20.118-45.01,1.68-12.329-.391-18.222-.388-33.074,0-23.649,5.261-36.833,9.768-56.585,4.051-17.748,8.115-43.512,7.319-77.008Z" transform="translate(-2928.256 -487.76)" fill="url(#linear-gradient-20)"/>
      <path id="Caminho_53" data-name="Caminho 53" d="M2984.556,782.986c2.113-10.569,6.062-14.323,6.447-25.12.335-9.418-2.475-12.036-3.959-21.352-2.957-18.566,5.345-26.118,6.106-41.9.412-8.554-13.66-27.868-26.4-44.466q-1.162-10.068-2.487-19.647l51.815,2.95c.8,33.5-3.269,59.259-7.319,77.008-4.507,19.751-9.764,32.935-9.768,56.584,0,14.853,2.069,20.745.388,33.074-2.707,19.865-12.24,35.073-20.118,45.01l-1.067-.121c7.423-13.445,8.746-24.112,7.931-32.262C2985.284,804.323,2981.916,796.191,2984.556,782.986Z" transform="translate(-2928.256 -487.76)" opacity="0.3" fill="url(#linear-gradient-20)" style="mix-blend-mode: multiply;isolation: isolate"/>
      <path id="Caminho_54" data-name="Caminho 54" d="M3034.8,637.649q3.356,61.1,5.472,124.461,1.57,47.534,2.326,93.851l11.2,1.383a130.454,130.454,0,0,0,11.683-30.152c3.987-15.988,3.064-25.482,4.812-42.052,1.962-18.584,4.812-22.633,9.861-46.077,10.246-47.579,15.369-71.368,3.939-86.167C3080.389,648.093,3068.756,636.042,3034.8,637.649Z" transform="translate(-2952.175 -490.133)" fill="url(#linear-gradient-22)"/>
      <path id="Caminho_55" data-name="Caminho 55" d="M3049.857,470.82c-2.5-.7-5.312-1.44-8.4-2.16-11.663-2.719-24.457-4.546-32.75-4.712-6.891-.138-30.853-.619-44.013,12.124-18.75,18.157-.216,48.3-11.346,109.255a245.733,245.733,0,0,1-7.235,29.3c-1.649,3.219-4.322,7.693-3.256,13.022.839,4.192,4.012,9.008,8.321,10.49,8.955,3.081,14.088-11.237,28.938-15.554,15.523-4.513,32.89,4.452,54.851,15.788,13.976,7.215,18.749,11.817,23.645,9.533,9.43-4.4,6.84-28.5,5.789-38.344C3060.216,570.454,3055.51,524.664,3049.857,470.82Z" transform="translate(-2920.915 -431.27)" fill="url(#linear-gradient-23)"/>
      <path id="Caminho_56" data-name="Caminho 56" d="M2959.413,639.225c2.525-4.377,2.419-10.989,7.958-14.107,3.229-1.819,5.747-.968,10.129-1.085,13.062-.348,15.562-8.566,24.6-9.043,13.993-.74,20.715,18.3,28.576,15.555,5.132-1.79,8.437-12.054,5.788-19.9-3.692-10.93-16.344-9.433-32.917-24.236-7.091-6.332-17.263-17.76-14.47-22.789,2.934-5.281,16.855,2.469,27.13-5.425,6-4.607,5.23-10.3,10.128-20.619,2.654-5.592,12.374-20.132,26.83-29.934,4.646,44.447,8.637,83.081,12.237,116.749,1.053,9.842,3.642,33.947-5.787,38.344-4.9,2.284-9.669-2.318-23.646-9.532-21.96-11.337-39.327-20.3-54.85-15.789-14.851,4.317-19.984,18.635-28.939,15.554a12.848,12.848,0,0,1-6.614-6.024C2953.552,645.511,2957.51,642.523,2959.413,639.225Z" transform="translate(-2921.916 -446.101)" opacity="0.3" fill="url(#linear-gradient-24)" style="mix-blend-mode: multiply;isolation: isolate"/>
      <g id="Grupo_36" data-name="Grupo 36" transform="translate(60.333)">
        <path id="Caminho_57" data-name="Caminho 57" d="M3015.636,434.533c-.017,1.944,4.815,11.679,11.334,16.4,6.577,4.762,14.851,4.5,17.316,5.115,5.716,1.417,6.451,1.378,6.578,1.946.616,2.767-14.971,12.2-31.074,9.925-9.856-1.391-18.823-7.014-18.272-9.967.554-2.971,10.4-1.377,13.333-6.753,2.041-3.74-.247-9.049-2.952-13.446C3014.519,432.844,3013.017,439.441,3015.636,434.533Z" transform="translate(-3001.213 -421.31)" fill="url(#linear-gradient-25)"/>
        <g id="Grupo_35" data-name="Grupo 35">
          <path id="Caminho_58" data-name="Caminho 58" d="M3003.276,429.641a9.349,9.349,0,0,1-.964-10.684c1.783-2.854,5-3.581,6.921-4.016,5.575-1.262,12.953.325,15.991,5.253,1.8,2.921-.683,9.661-1.056,10.866-.423,1.361-1.4,1.918-2.234,3-1.161,1.5-2.976,3.895-5.929,7.883a23.335,23.335,0,0,0-1.7-3.692,20.657,20.657,0,0,0-3.167-4.211C3007.811,430.772,3005.537,432.053,3003.276,429.641Z" transform="translate(-3001.069 -414.527)" fill="url(#linear-gradient-26)"/>
          <path id="Caminho_59" data-name="Caminho 59" d="M3021.325,444a12.688,12.688,0,0,1-10.494,6.807c-6.662.284-9.234-14.447-5.349-18.052a8.4,8.4,0,0,1,6.438-1.549c1.4.233,1.917.747,4.207,1.084,2.113.311,2.668.02,3.344.475.847.57,1.588,2.109.761,6.586,1.124-1.414,2.586-2.069,3.715-1.678a2.275,2.275,0,0,1,.974.763C3026.029,440.031,3024.715,442.363,3021.325,444Z" transform="translate(-3001.947 -420.146)" fill="url(#linear-gradient-27)"/>
          <path id="Caminho_60" data-name="Caminho 60" d="M3019.886,432.2c-.294.272.811,1.358,1.065,3.034.5,3.255-2.391,7.538-5.732,8.236-1.975.412-2.654-.732-5.992-.724a15.2,15.2,0,0,0-4.784.8c-.65,3.7.713,7.169,3.289,8.569,2.774,1.508,5.954.068,7.283-.534a9.523,9.523,0,0,0,4.991-4.564c1.3-3-.459-4.529,1.18-6.638.828-1.064,2.005-1.613,3-3.607a9.43,9.43,0,0,0,.535-1.329C3022.815,433.82,3020.311,431.809,3019.886,432.2Z" transform="translate(-3002.158 -420.503)" fill="url(#linear-gradient-28)"/>
        </g>
      </g>
      <path id="Caminho_61" data-name="Caminho 61" d="M3078.945,474.367s47.595,52.011,21.327,94.3-71.875-6.716-71.875-6.716l5.74-3.365s35.608-1.606,31.348-21.828a66.881,66.881,0,0,0-8.211-21.132,15.4,15.4,0,0,1,1.525-18.153Z" transform="translate(-2950.003 -434.817)" fill="url(#linear-gradient-29)"/>
      <path id="Caminho_62" data-name="Caminho 62" d="M3016.564,588.141c-4.453-2.884-12.414-2.4-12.93-2.525s3.27,3.19,6.11,3.664-3.181,6.689.3,8.2,9.938,2.2,9.938,2.2l5.741-3.365A55.748,55.748,0,0,0,3016.564,588.141Z" transform="translate(-2941.59 -472.538)" fill="url(#linear-gradient-30)"/>
    </g>
    <path id="Caminho_63" data-name="Caminho 63" d="M2848.16,587.927c-4.613-4.2-21.076,3.9-31.986,14.649-12.818,12.631-11.833,22.872-23.019,38.563-5.561,7.8-4.2,36.673,10.762,26.906,10.391-6.786,15.738-15.778,26.008-33.482C2840.232,616.792,2853.927,593.18,2848.16,587.927Z" transform="translate(-2738.917 -472.94)" fill="url(#linear-gradient-31)"/>
    <path id="Caminho_64" data-name="Caminho 64" d="M2717.9,948.038l12.852-7.722h5.8s1.975,7.354,1.751,7.722c-2.584,4.235-14.616,7.456-22.124,7.723-1.247.044-2.986.05-3.436-.853C2711.982,953.377,2715.382,950.168,2717.9,948.038Z" transform="translate(-2712.634 -592.811)"/>
    <path id="Caminho_65" data-name="Caminho 65" d="M2735.391,927.566c.827,4.78-.218,7.273-1.344,8.669-.793.983-1.5,1.262-6.2,5.33-1.555,1.346-2.348,2.066-2.168,2.443.206.432,1.58.2,4.545-.516,6.462-1.554,9.709-2.363,10.5-3.918.718-1.408.083-2.043.125-5.879a19.992,19.992,0,0,1,.945-5.831Z" transform="translate(-2717.048 -588.488)" fill="url(#linear-gradient-32)"/>
    <path id="Caminho_66" data-name="Caminho 66" d="M2723.786,868.516s-5.806,6.929-4.861,14.524,11.113-3.51,12.53-7.262,3.074-9.1,3.074-9.1S2727.4,862.243,2723.786,868.516Z" transform="translate(-2714.732 -567.326)"/>
    <path id="Caminho_67" data-name="Caminho 67" d="M2727.4,853.838s1.576,8.072-1.429,12.332c-1.5,2.122-3.514,3.922-2.922,5.649a3.206,3.206,0,0,0,3.188,1.858c2.449-.252,3.807-4.007,4.765-6.655,1.414-3.912,2.2-12.283,2.2-12.283Z" transform="translate(-2716.129 -563.488)" fill="url(#linear-gradient-33)"/>
    <path id="Caminho_68" data-name="Caminho 68" d="M2731.232,821.4l-5.357-1.951a60.347,60.347,0,0,1-5.05-29.516c2.92-32.667,33.133-49.977,36.49-51.829,8.232,4.13,16.569,9.957,16.872,17.3.378,9.22-12.182,14.094-23.99,27.577C2743.109,791.074,2735.535,803.133,2731.232,821.4Z" transform="translate(-2715.335 -524.245)" fill="#f4f4f4"/>
    <path id="Caminho_69" data-name="Caminho 69" d="M2737.437,856.411a130.265,130.265,0,0,1-2.691-52.689c2.573-16.376,7.8-49.685,30.044-62.105,4.856-2.712,11.8-5.141,20.261-12.682a71.75,71.75,0,0,0,14.267-17.586c29.742-8.724,57.175-5.189,69.28,10.762,1.4,1.843,4.9,5.841,5.578,11.736,1.529,13.3-11.541,29.313-26.205,32.657-18.637,4.25-29.449-14.887-45.962-8.52-4.619,1.781-8.535,6.195-16.367,15.022a124.877,124.877,0,0,0-17.684,25.737c-6.31,12.346-11.094,21.461-11.792,33.272a31.929,31.929,0,0,1-3.483,14.307,29.817,29.817,0,0,1-8.323,9.567Z" transform="translate(-2719.615 -513.597)" fill="url(#linear-gradient-34)"/>
    <path id="Caminho_70" data-name="Caminho 70" d="M2877.557,733.847c-.677-5.9-4.18-9.893-5.578-11.736-12.1-15.951-39.538-19.487-69.28-10.762a71.74,71.74,0,0,1-14.267,17.586c-8.462,7.54-15.4,9.969-20.26,12.682-13.58,7.585-20.812,22.956-24.976,37.507,6.178-9.579,11.466-12.126,15.56-12.171,5.858-.065,8.475,4.943,15.47,4.26,7.476-.73,9.186-6.912,15.246-7.623a11.291,11.291,0,0,1,6.727,1.494c3.577-3.745,6.244-5.963,9.192-7.1,16.512-6.367,27.325,12.77,45.962,8.52C2866.016,763.16,2879.086,747.148,2877.557,733.847Z" transform="translate(-2722.997 -513.597)" opacity="0.3" fill="url(#linear-gradient-35)" style="mix-blend-mode: multiply;isolation: isolate"/>
    <path id="Caminho_71" data-name="Caminho 71" d="M2762.913,760.705a97.914,97.914,0,0,1,14.8.336c29.676,2.932,37.857,17.612,62.384,21.194,5.8.847,31.635,4.62,42.824-10.314,8.032-10.721,6.817-29.2-1.969-36.462-3.719-3.075-7.4-2.99-31.214-2.775-8.968.081-17.937.11-26.9.225-37.962.484-45.222-2.145-52.13,4.134C2767.485,739.972,2762.773,746.264,2762.913,760.705Z" transform="translate(-2729.681 -522.377)" fill="url(#linear-gradient-36)"/>
    <g id="Grupo_39" data-name="Grupo 39" transform="translate(70.111 113.987)">
      <g id="Grupo_38" data-name="Grupo 38">
        <path id="Caminho_72" data-name="Caminho 72" d="M2861.978,589.534s44.3-12.918,48.894,19.512c4.405,31.084-18.16,45.348-7.893,76.833a.273.273,0,0,1,.008.114c-.282,2.208-24.194-1.713-54.781-1.361-16.077.184-28.231,1.484-29.4-2.384-.474-1.565,1.018-3.422,2.384-4.768,11.308-22.042,12.8-32.942,11.8-38.828a87.146,87.146,0,0,1-.933-16.4,39.977,39.977,0,0,1,.933-7.215,53.105,53.105,0,0,1,11.734-21.956C2846.046,591.626,2847.619,590.109,2861.978,589.534Z" transform="translate(-2818.714 -586.994)" fill="url(#linear-gradient-37)"/>
      </g>
    </g>
    <g id="Grupo_40" data-name="Grupo 40" transform="translate(98.506 89.876)">
      <path id="Caminho_73" data-name="Caminho 73" d="M2886.166,561.43c-.406,1.9-2.472,12.07,1.691,14.688.9.567,2.636.892,6.1,1.542,2.27.426,4.175.687,5.519.847a13.921,13.921,0,0,1-2.737,7.008c-5.52,7.08-16.585,5.248-18.164,4.961-5.566-1.014-11.043-2.734-12.366-3.784a28.1,28.1,0,0,1-4.535-4.021c2.154-1.041,6.5-3.786,9.421-4.685a54.179,54.179,0,0,1,6.09-1.494q.46-2.947.919-5.9Z" transform="translate(-2861.678 -554.214)" fill="url(#linear-gradient-38)"/>
      <path id="Caminho_74" data-name="Caminho 74" d="M2889.139,561.79s-.686,6.8-7.3,8c-5.918,1.073-10.373-13.228-7.344-16.926a7.926,7.926,0,0,1,5.666-2.346c1.521.044,6.656,2,7.374,7.14,1.023-1.078,2.3-1.388,2.926-.937.8.572.37,2.237.273,2.614A4.792,4.792,0,0,1,2889.139,561.79Z" transform="translate(-2865.695 -550.512)" fill="url(#linear-gradient-39)"/>
    </g>
    <path id="Caminho_75" data-name="Caminho 75" d="M2845.672,675.548c2.4-12.361-7.753-20.909-3.178-27.812,6.335-9.559,29.305,1.558,38.937-10.33,4.062-5.014,1.5-8.874,4.768-15.893,3.062-6.579,10.131-13.524,26.456-17.953a26.134,26.134,0,0,1,4.028,11.1c4.4,31.084-18.159,45.348-7.893,76.833a.279.279,0,0,1,.008.114c-.281,2.208-24.194-1.713-54.781-1.362-6.991.08-13.238.371-18.164.356C2840.784,686.485,2844.512,681.521,2845.672,675.548Z" transform="translate(-2754.415 -478.625)" opacity="0.3" fill="url(#linear-gradient-40)" style="mix-blend-mode: multiply;isolation: isolate"/>
    <g id="Grupo_41" data-name="Grupo 41" transform="translate(53.072 133.849)">
      <path id="Caminho_76" data-name="Caminho 76" d="M2850.19,650.373s-42.315-34.484-50.167-31.4-13.791,18.791,8.366,39.488S2869.377,673.215,2850.19,650.373Z" transform="translate(-2792.934 -617.632)" fill="url(#linear-gradient-41)"/>
      <path id="Caminho_77" data-name="Caminho 77" d="M2796.636,630.257a1.928,1.928,0,0,1,1.431-.57c-.9-4.86.384-9.779,3.95-11.757s8.416-.463,12.066,2.87a1.933,1.933,0,0,1,1.242-.913c1.488-.272,3.086,1.651,3.571,4.3a6.945,6.945,0,0,1-.248,3.731c1.465,4.982-.452,9.577-4.524,11.836s-8.986,1.454-12.437-2.425a6.96,6.96,0,0,1-3.3-1.765C2796.4,633.75,2795.617,631.375,2796.636,630.257Z" transform="translate(-2794.038 -617.046)" fill="url(#linear-gradient-42)"/>
    </g>
    <path id="Caminho_78" data-name="Caminho 78" d="M2794.95,655.225c-6.25-3-7.914-10.878-8.014-11.391a18.314,18.314,0,0,1-.084-6.5c.113-.361,1.5-4.682,3.024-4.6,1.221.063,2.372,2.946,2.706,7.184a28.027,28.027,0,0,0,3.707,5.3c3.307,3.718,5.915,4.617,5.894,6.868a4.463,4.463,0,0,1-2.966,3.79A5.521,5.521,0,0,1,2794.95,655.225Z" transform="translate(-2737.715 -488.516)" fill="url(#linear-gradient-43)"/>
    <g id="Grupo_42" data-name="Grupo 42" transform="translate(116.288 117.873)">
      <path id="Caminho_79" data-name="Caminho 79" d="M2888.583,644.51l3.973-3.974q15.131,7.592,22.249,11.125c5.227,2.6,7.861,3.885,8.861,2.943,2.584-2.434-9.3-14.187-12.188-30.38-2.46-13.786,4.354-30.63,10.94-31.328,14.212-1.506,42.021,71.108,24.887,85.011-9.6,7.792-31.6-4.229-34.089-5.587A56.236,56.236,0,0,1,2888.583,644.51Z" transform="translate(-2888.583 -592.874)" fill="url(#linear-gradient-44)"/>
    </g>
    <path id="Caminho_80" data-name="Caminho 80" d="M2879.427,659.523c-6.123-3.253-13.453.081-13.925.3a18.3,18.3,0,0,0-5.282,3.787c-.223.305-2.879,3.985-1.912,5.165.775.945,3.779.161,7.389-2.084a28.028,28.028,0,0,1,6.464-.159c4.956.457,7.226,2.023,9.025.671a4.462,4.462,0,0,0,1.292-4.635A5.515,5.515,0,0,0,2879.427,659.523Z" transform="translate(-2761.958 -497.119)" fill="url(#linear-gradient-45)"/>
  </g>
</svg>
