<svg xmlns="http://www.w3.org/2000/svg" width="31.575" height="31.575" viewBox="0 0 31.575 31.575"><defs><style>.a{fill:#00c8aa;}</style></defs><g transform="translate(0)"><path class="a" d="M418.562.925A.925.925,0,0,0,417.637,0h-4.291a.925.925,0,0,0-.925.925V5.21a.925.925,0,0,0,.925.925h4.291a.925.925,0,0,0,.925-.925Z" transform="translate(-386.987 0)"/><path class="a" d="M170.006,45.142a2.757,2.757,0,0,1-.813-1.962V40.465l-14.014,14.7L160,59.982l14.693-14.027h-2.724A2.757,2.757,0,0,1,170.006,45.142Z" transform="translate(-145.609 -37.97)"/><path class="a" d="M97.569,232.446a.925.925,0,0,0-1.308,0,1.852,1.852,0,0,1-2.614,0L87.594,226.4h0a1.842,1.842,0,0,1,0-2.607.925.925,0,0,0,0-1.308h0a.925.925,0,0,0-1.308,0,3.692,3.692,0,0,0,0,5.224l0,0,6.054,6.046a3.7,3.7,0,0,0,5.229,0,.925.925,0,0,0,0-1.308h0Z" transform="translate(-79.949 -208.509)"/><path class="a" d="M68.99,348.256l4,4,1.973-1.623-4.354-4.348Z" transform="translate(-64.735 -324.933)"/><path class="a" d="M.377,401.03a.925.925,0,0,0-.107,1.4h0l3.418,3.413a.925.925,0,0,0,1.4-.106l1.877-2.549-4.034-4.034Z" transform="translate(0 -374.539)"/></g></svg>