<svg xmlns="http://www.w3.org/2000/svg" width="34.688" height="24.525" viewBox="0 0 34.688 24.525"><defs><style>.a{fill:#00c8aa;}</style></defs><g transform="translate(0 -6.163)"><path class="a" d="M33.672,172.493H32.588V151.016A1.016,1.016,0,0,0,31.571,150H27.506a1.016,1.016,0,0,0-1.016,1.016v21.477H24.458V157.114a1.016,1.016,0,0,0-1.016-1.016H19.376a1.016,1.016,0,0,0-1.016,1.016v15.379H16.328v-7.249a1.016,1.016,0,0,0-1.016-1.016H11.246a1.016,1.016,0,0,0-1.016,1.016v7.249H8.2V161.179a1.016,1.016,0,0,0-1.016-1.016H3.116A1.016,1.016,0,0,0,2.1,161.179v11.314H1.016a1.016,1.016,0,0,0,0,2.033H33.672a1.016,1.016,0,1,0,0-2.033Zm0,0" transform="translate(0 -143.838)"/></g></svg>