<svg xmlns="http://www.w3.org/2000/svg" width="26.22" height="28.604" viewBox="0 0 26.22 28.604"><defs><style>.a{fill:#00c8aa;}</style></defs><path class="a" d="M322.415,19.873A3.873,3.873,0,1,1,318.541,16,3.873,3.873,0,0,1,322.415,19.873Zm0,0" transform="translate(-297.088 -15.106)"/><path class="a" d="M303.435,9.535A4.767,4.767,0,1,1,308.2,4.767,4.772,4.772,0,0,1,303.435,9.535Zm0-7.747a2.98,2.98,0,1,0,2.979,2.98A2.983,2.983,0,0,0,303.435,1.788Zm0,0" transform="translate(-281.982)"/><path class="a" d="M322.415,361.206a3.873,3.873,0,1,1-3.873-3.874A3.873,3.873,0,0,1,322.415,361.206Zm0,0" transform="translate(-297.088 -337.369)"/><path class="a" d="M303.435,350.867A4.767,4.767,0,1,1,308.2,346.1,4.772,4.772,0,0,1,303.435,350.867Zm0-7.747a2.98,2.98,0,1,0,2.979,2.98A2.983,2.983,0,0,0,303.435,343.12Zm0,0" transform="translate(-281.982 -322.263)"/><path class="a" d="M23.747,190.541a3.873,3.873,0,1,1-3.874-3.873A3.873,3.873,0,0,1,23.747,190.541Zm0,0" transform="translate(-15.106 -176.239)"/><path class="a" d="M4.767,180.2a4.767,4.767,0,1,1,4.767-4.767A4.772,4.772,0,0,1,4.767,180.2Zm0-7.747a2.979,2.979,0,1,0,2.98,2.979A2.983,2.983,0,0,0,4.767,172.456Zm0,0" transform="translate(0 -161.133)"/><path class="a" d="M115.542,98.9a1.192,1.192,0,0,1-.591-2.228l11.059-6.3a1.192,1.192,0,1,1,1.18,2.071l-11.059,6.3A1.184,1.184,0,0,1,115.542,98.9Zm0,0" transform="translate(-107.96 -85.175)"/><path class="a" d="M126.62,274.909a1.184,1.184,0,0,1-.589-.156l-11.059-6.3a1.192,1.192,0,0,1,1.18-2.071l11.059,6.3a1.192,1.192,0,0,1-.591,2.228Zm0,0" transform="translate(-107.981 -251.346)"/></svg>